<?xml version="1.0" encoding="UTF-8" standalone="no"?>
<svg
   xmlns:dc="http://purl.org/dc/elements/1.1/"
   xmlns:cc="http://creativecommons.org/ns#"
   xmlns:rdf="http://www.w3.org/1999/02/22-rdf-syntax-ns#"
   xmlns:svg="http://www.w3.org/2000/svg"
   xmlns="http://www.w3.org/2000/svg"
   xmlns:sodipodi="http://sodipodi.sourceforge.net/DTD/sodipodi-0.dtd"
   xmlns:inkscape="http://www.inkscape.org/namespaces/inkscape"
   width="200"
   height="200"
   viewBox="0 0 200 200"
   version="1.1"
   id="svg2"
   inkscape:version="0.91 r13725"
   sodipodi:docname="airbank-logo.svg">
  <metadata
     id="metadata64">
    <rdf:RDF>
      <cc:Work
         rdf:about="">
        <dc:format>image/svg+xml</dc:format>
        <dc:type
           rdf:resource="http://purl.org/dc/dcmitype/StillImage" />
        <dc:title>Artboard</dc:title>
      </cc:Work>
    </rdf:RDF>
  </metadata>
  <sodipodi:namedview
     pagecolor="#ffffff"
     bordercolor="#666666"
     borderopacity="1"
     objecttolerance="10"
     gridtolerance="10"
     guidetolerance="10"
     inkscape:pageopacity="0"
     inkscape:pageshadow="2"
     inkscape:window-width="1858"
     inkscape:window-height="1177"
     id="namedview62"
     showgrid="false"
     inkscape:zoom="1"
     inkscape:cx="100.5"
     inkscape:cy="15"
     inkscape:window-x="1974"
     inkscape:window-y="-8"
     inkscape:window-maximized="1"
     inkscape:current-layer="svg2" />
  <!-- Generator: Sketch 51 (57462) - http://www.bohemiancoding.com/sketch -->
  <title
     id="title4">Artboard</title>
  <desc
     id="desc6">Created with Sketch.</desc>
  <circle
     style="opacity:1;fill:#000000;fill-opacity:1;stroke:#ffffff;stroke-width:0.39656314;stroke-miterlimit:10;stroke-dasharray:none;stroke-opacity:1"
     id="path8191"
     cx="100"
     cy="100"
     r="99.80172" />
  <defs
     id="defs8">
    <linearGradient
       x1="-0.8347531"
       y1="26.92639"
       x2="29.030519"
       y2="0.97912008"
       id="linearGradient-1"
       gradientTransform="scale(0.93210079,1.0728454)"
       gradientUnits="userSpaceOnUse">
      <stop
         stop-color="#1F1955"
         offset="25%"
         id="stop11" />
      <stop
         stop-color="#4B1F51"
         offset="34.23%"
         id="stop13" />
      <stop
         stop-color="#7C2348"
         offset="46.73%"
         id="stop15" />
      <stop
         stop-color="#A7243D"
         offset="58.02%"
         id="stop17" />
      <stop
         stop-color="#CA2332"
         offset="67.67%"
         id="stop19" />
      <stop
         stop-color="#E0222A"
         offset="75.32%"
         id="stop21" />
      <stop
         stop-color="#EC2227"
         offset="80%"
         id="stop23" />
    </linearGradient>
  </defs>
  <g
     id="g8325"
     transform="matrix(1.9209791,0,0,1.9209791,-87.694386,-106.05028)">
    <g
       id="g10"
       transform="translate(61,96)"
       style="fill:none;fill-rule:nonzero">
      <path
         style="fill:#ffffff"
         inkscape:connector-curvature="0"
         id="path12"
         d="m 3.374269,8.0178268 c 0,0.7017801 0.4678363,1.5205236 1.5204678,1.5205236 0.5847954,0 1.0526316,-0.2924084 1.3450293,-0.5848168 C 6.7660819,8.3102352 6.8245614,7.4914917 6.8245614,6.3218582 4.8362573,6.0879315 3.374269,6.73123 3.374269,8.0178268 Z M 7.1754386,11.234319 C 7.0584795,10.591021 7.0584795,10.123167 7.0584795,9.7722771 5.8888889,11.468246 4.4853801,11.468246 3.9005848,11.468246 2.380117,11.468246 1.6783626,11.058874 1.2690059,10.649502 0.62573099,10.006204 0.33333333,9.1874603 0.33333333,8.3102352 c 0,-0.8772251 0.29239766,-2.3977487 2.22222227,-3.2749739 1.2865497,-0.5848167 3.1578947,-0.5848167 4.2105263,-0.5848167 0,-0.7017801 0,-1.0526702 -0.1169591,-1.4035602 C 6.3567251,2.2866226 5.5380117,2.1696592 5.245614,2.1696592 4.7777778,2.1696592 4.368421,2.3451043 4.0760234,2.754476 3.8421053,3.1053661 3.8421053,3.4562561 3.8421053,3.6901828 l -3.04093571,0 c 0,-0.5848167 0.0584795,-1.6959686 1.16959061,-2.5147121 0.9356726,-0.70178006 2.2222223,-0.87722509 3.2163743,-0.87722509 0.877193,0 2.748538,0.17544503 3.7426901,1.34507859 0.7017544,0.8772251 0.7602339,2.1053403 0.7602339,2.5731937 l 0,4.2691623 c 0,0.8772252 0,1.8129318 0.2339181,2.6901568 l -2.748538,0 0,0.05848 z" />
      <polygon
         style="fill:#ffffff"
         id="polygon14"
         points="14.895,11.234 11.795,11.234 11.795,0.649 14.895,0.649 " />
      <path
         style="fill:#ffffff"
         inkscape:connector-curvature="0"
         id="path16"
         d="m 19.807017,2.6959064 -0.05848,-2.04678359 -2.923977,0 C 16.883041,1.2339181 17,2.8128655 17,3.2807018 l 0,7.9532162 3.099415,0 0,-5.2046782 c 0,-1.3450293 0.175439,-2.9239766 3.333333,-2.631579 l 0,-2.80701752 C 20.918129,0.47368421 20.216374,1.7602339 19.807017,2.6959064 Z m 14.269006,8.4795326 c -0.526315,0 -1.929824,0.05848 -2.982456,1.403508 l 0,-4.6198827 -3.099415,0 0,13.9181287 2.982456,0 c 0.05848,-0.643275 0.05848,-1.111111 0.116959,-1.461988 0.935673,1.637427 2.631579,1.637427 3.157895,1.637427 2.105263,0 4.444444,-1.403509 4.444444,-5.321638 0,-3.567251 -2.046783,-5.555555 -4.619883,-5.555555 z m -0.701754,8.830409 c -1.403509,0 -2.45614,-1.111111 -2.45614,-3.508772 0,-0.643275 0,-3.216374 2.280701,-3.216374 2.222223,0 2.280702,2.748538 2.280702,3.567251 0.05848,0.526316 0.05848,3.157895 -2.105263,3.157895 z m 15.672515,-5.02924 c 0,-0.467836 0,-1.754386 -0.760234,-2.573099 -1.052632,-1.22807 -2.865497,-1.345029 -3.74269,-1.345029 -0.994152,0 -2.222223,0.175438 -3.216375,0.877193 -1.111111,0.818713 -1.16959,1.929824 -1.16959,2.514619 l 3.040935,0 c 0,-0.233918 0,-0.584795 0.233919,-0.935672 0.292397,-0.409357 0.760233,-0.584795 1.16959,-0.584795 0.292398,0 1.111111,0.116959 1.403509,0.877193 0.116959,0.350877 0.116959,0.701754 0.116959,1.403508 -1.052632,0 -2.865497,0 -4.210526,0.584796 -1.929825,0.877193 -2.222223,2.45614 -2.222223,3.274853 0,0.818714 0.292398,1.695907 0.935673,2.339182 0.409357,0.409356 1.111111,0.818713 2.631579,0.818713 0.584795,0 1.988304,0 3.157895,-1.695906 0,0.292397 0,0.818713 0.05848,1.461988 l 2.748538,0 c -0.175438,-0.877193 -0.175438,-1.754386 -0.175438,-2.690058 l 0,-4.327486 z m -3.508772,4.561404 c -0.292398,0.350877 -0.760234,0.584795 -1.34503,0.584795 -1.052631,0 -1.520467,-0.818713 -1.520467,-1.520468 0,-1.22807 1.403508,-1.871345 3.391812,-1.695906 0.05848,1.111111 0,1.929824 -0.526315,2.631579 z M 60.74269,12.988304 C 60.450292,12.22807 59.573099,11 57.526316,11 c -2.280702,0 -3.157895,1.345029 -3.450293,1.871345 l -0.05848,-1.578947 -2.982456,0 c 0.05848,0.760234 0.05848,1.871345 0.05848,1.929824 l 0,8.71345 3.099415,0 0,-6.081871 c 0,-0.818713 0.175439,-1.345029 0.350878,-1.637427 0.350877,-0.526316 0.935672,-0.818713 1.637426,-0.818713 0.818714,0 1.28655,0.467836 1.520468,0.877193 0.175439,0.350877 0.175439,0.701754 0.175439,1.16959 l 0,6.491228 3.157895,0 0,-5.730994 c 0,-1.988304 -0.05848,-2.573099 -0.292398,-3.216374 z" />
      <polygon
         style="fill:#95c127"
         id="polygon18"
         points="19.222,21.877 30.333,0.649 27.117,0.649 16.006,21.877 " />
      <polygon
         style="fill:#ffffff"
         id="polygon20"
         points="69.222,15.854 72.848,11.292 69.339,11.292 66.123,15.678 66.123,7.901 63.082,7.901 63.082,21.877 66.123,21.877 66.123,16.146 69.398,21.877 73.082,21.877 " />
    </g>
  </g>
</svg>
